<?xml version="1.0" standalone="no"?>
<!DOCTYPE svg PUBLIC "-//W3C//DTD SVG 1.1//EN"
"http://www.w3.org/Graphics/SVG/1.1/DTD/svg11.dtd">
<svg width="200" height="300" viewBox="0 0 921 1754"
     xmlns="http://www.w3.org/2000/svg" xmlns:xlink="http://www.w3.org/1999/xlink">

    <!-- Reference to external JavaScript -->
   <!-- <script type="text/javascript" xlink:href="./js/SvgResizer.js"></script> -->

    <!-- SVG Content: Ensure all path data are correctly closed -->
  <path id="Asia"
        fill="#D7E170" stroke="black" stroke-width="1"
        d="M 553.67,27.67
           C 553.67,27.67 541.00,28.67 541.00,28.67
             541.00,28.67 519.00,33.00 518.00,33.00
             517.00,33.00 508.00,55.00 508.00,55.00
             508.00,55.00 509.00,85.00 509.00,85.00
             509.00,85.00 512.33,104.00 512.33,104.00
             512.33,104.00 519.67,127.33 519.67,127.33
             519.67,127.33 530.67,144.67 530.67,145.00
             530.67,145.33 542.33,159.67 542.33,159.67
             542.33,159.67 554.67,174.00 554.67,174.00
             554.67,174.00 568.33,194.33 568.33,194.33
             568.33,194.33 576.00,210.67 576.00,210.67
             576.00,210.67 577.67,224.67 577.67,224.67
             577.67,224.67 570.33,241.67 570.33,241.67
             570.33,241.67 567.00,245.67 567.00,245.67
             567.00,245.67 540.33,272.33 540.33,272.33
             540.33,272.33 523.67,291.00 523.67,291.00
             523.67,291.00 519.00,304.33 519.00,304.33
             519.00,304.33 518.33,309.67 518.33,309.67
             518.33,309.67 531.33,309.67 531.33,309.67
             531.33,309.67 530.00,315.67 530.00,315.67
             530.00,315.67 530.67,325.00 530.67,325.00
             530.67,325.00 530.00,331.33 530.00,331.33
             530.00,331.33 525.33,335.67 525.33,335.67
             525.33,335.67 516.33,342.67 516.33,342.67
             516.33,342.67 509.67,351.00 509.67,351.00
             509.67,351.00 509.33,361.67 509.33,361.67
             509.33,361.67 515.00,371.33 515.00,371.33
             515.00,371.33 525.33,372.00 525.33,372.00
             525.33,372.00 535.67,382.33 535.67,382.33
             535.67,382.33 538.00,388.00 538.00,388.00
             538.00,388.00 535.33,396.00 535.33,396.00
             535.33,396.00 529.67,399.33 529.00,399.33
             528.33,399.33 510.67,404.00 510.67,404.00
             510.67,404.00 499.67,408.00 499.67,408.00
             499.67,408.00 495.67,413.67 495.67,413.67
             495.67,413.67 491.00,423.67 491.00,423.67
             491.00,423.67 481.67,432.00 481.67,432.00
             481.67,432.00 475.00,438.00 474.33,438.00
             473.67,438.00 463.00,447.67 463.00,447.33
             463.00,447.00 456.00,456.33 456.00,456.33
             456.00,456.33 451.00,467.33 451.00,467.33
             451.00,467.33 445.67,477.00 445.67,477.00
             445.67,477.00 441.00,484.33 441.00,484.33
             441.00,484.33 429.33,495.67 429.33,495.67
             429.33,495.67 423.00,510.00 423.00,510.00
             423.00,510.00 419.67,521.33 419.67,521.33
             419.67,521.33 414.00,526.33 414.00,526.33
             414.00,526.33 409.67,529.00 409.67,529.00
             409.67,529.00 411.33,535.67 411.00,535.67
             410.67,535.67 411.00,549.67 411.00,549.67
             411.00,549.67 404.00,567.00 404.00,567.00
             404.00,567.00 396.00,584.00 396.00,584.00
             396.00,584.00 388.00,593.33 388.00,593.33
             388.00,593.33 381.33,601.33 381.33,601.33
             381.33,601.33 367.33,607.33 367.33,607.33
             367.33,607.33 352.00,615.00 352.00,615.00
             352.00,615.00 339.00,626.00 339.00,626.00
             339.00,626.00 330.67,637.00 330.33,637.00
             330.00,637.00 322.00,653.67 322.00,653.33
             322.00,653.00 316.00,666.67 316.00,666.67
             316.00,666.67 313.67,684.67 313.67,684.67
             313.67,684.67 314.67,696.00 314.67,696.00
             314.67,696.00 318.00,703.67 318.00,703.67
             318.00,703.67 320.33,714.33 320.33,714.33
             320.33,714.33 316.33,722.00 316.33,722.00
             316.33,722.00 310.33,736.67 310.33,736.67
             310.33,736.67 307.67,728.00 307.67,728.00
             307.67,728.00 296.67,743.33 296.67,743.33
             296.67,743.33 289.33,763.00 289.33,763.00
             289.33,763.00 284.33,778.33 284.33,778.33
             284.33,778.33 285.00,794.33 285.00,794.33
             285.00,794.33 298.00,837.67 298.00,837.67
             298.00,837.67 305.33,846.33 305.33,846.33
             305.33,846.33 318.67,850.33 318.67,850.33
             318.67,850.33 325.33,859.00 325.33,859.00
             325.33,859.00 331.00,871.33 331.00,871.33
             331.00,871.33 338.00,876.67 338.00,876.67
             338.00,876.67 359.00,872.67 359.00,872.67
             359.00,872.67 372.00,872.00 372.00,872.00
             372.00,872.00 379.67,880.67 379.67,880.67
             379.67,880.67 384.33,891.00 384.33,891.00
             384.33,891.00 386.33,908.67 386.33,908.67
             386.33,908.67 388.33,922.33 388.33,922.33
             388.33,922.33 386.67,934.00 386.67,934.00
             386.67,934.00 380.67,940.00 380.67,940.00
             380.67,940.00 366.33,942.00 366.33,942.00
             366.33,942.00 361.67,948.33 361.67,948.33
             361.67,948.33 350.33,971.33 350.33,971.33
             350.33,971.33 341.33,997.67 341.33,997.33
             341.33,997.00 336.00,1028.33 336.00,1028.33
             336.00,1028.33 325.67,1042.00 325.67,1042.00
             325.67,1042.00 308.67,1043.33 308.67,1043.33
             308.67,1043.33 307.00,1076.00 307.00,1076.00
             307.00,1076.00 301.33,1085.00 301.33,1085.00
             301.33,1085.00 288.33,1090.00 288.33,1090.00
             288.33,1090.00 271.00,1089.33 271.00,1089.33
             271.00,1089.33 266.67,1093.33 266.67,1093.33
             266.67,1093.33 259.00,1105.67 259.00,1105.67
             259.00,1105.67 251.00,1120.00 251.00,1120.00
             251.00,1120.00 242.33,1125.33 242.33,1125.33
             242.33,1125.33 222.33,1125.00 222.33,1125.00
             222.33,1125.00 192.33,1124.00 192.33,1124.00
             192.33,1124.00 182.00,1128.00 182.00,1128.00
             182.00,1128.00 168.33,1141.33 168.33,1141.33
             168.33,1141.33 156.67,1158.67 156.67,1158.67
             156.67,1158.67 142.67,1171.00 142.67,1171.00
             142.67,1171.00 123.33,1180.33 123.33,1180.33
             123.33,1180.33 68.00,1181.00 68.00,1181.00
             68.00,1181.00 15.67,1209.67 15.67,1209.67
             15.67,1209.67 64.00,1210.00 64.00,1210.00
             64.00,1210.00 78.67,1215.33 78.67,1215.33
             78.67,1215.33 85.33,1224.33 85.33,1224.33
             85.33,1224.33 73.00,1232.33 73.00,1232.33
             73.00,1232.33 47.33,1235.33 47.33,1235.33
             47.33,1235.33 80.67,1277.33 80.67,1277.33
             80.67,1277.33 87.33,1298.33 87.33,1298.33
             87.33,1298.33 100.67,1305.67 100.67,1305.67
             100.67,1305.67 129.00,1302.00 129.00,1302.00
             129.00,1302.00 160.33,1266.33 160.33,1266.33
             160.33,1266.33 173.67,1266.00 173.67,1266.00
             173.67,1266.00 182.33,1274.33 182.33,1275.00
             182.33,1275.67 180.67,1288.67 180.67,1288.67
             180.67,1288.67 176.33,1304.33 176.33,1304.33
             176.33,1304.33 177.67,1320.00 177.67,1320.00
             177.67,1320.00 187.67,1331.33 187.67,1331.33
             187.67,1331.33 203.33,1344.33 203.33,1344.33
             203.33,1344.33 209.00,1362.33 209.00,1362.33
             209.00,1362.33 215.67,1384.67 215.67,1384.67
             215.67,1384.67 226.67,1393.67 226.67,1393.33
             226.67,1393.00 259.33,1395.67 259.33,1395.67
             259.33,1395.67 278.00,1409.00 278.00,1409.00
             278.00,1409.00 302.33,1412.33 302.33,1412.33
             302.33,1412.33 335.67,1399.00 335.67,1399.00
             335.67,1399.00 363.67,1383.67 363.67,1383.67
             363.67,1383.67 385.00,1384.67 385.00,1384.67
             385.00,1384.67 397.00,1391.33 397.00,1391.33
             397.00,1391.33 403.00,1401.33 403.00,1401.33
             403.00,1401.33 396.33,1419.00 396.33,1419.00
             396.33,1419.00 381.67,1422.00 381.67,1422.00
             381.67,1422.00 361.00,1418.00 361.00,1418.00
             361.00,1418.00 349.00,1424.00 349.00,1424.00
             349.00,1424.00 344.67,1431.67 344.67,1431.67
             344.67,1431.67 352.33,1440.33 352.67,1440.67
             353.00,1441.00 370.33,1445.33 370.33,1445.33
             370.33,1445.33 416.00,1451.00 416.00,1451.00
             416.00,1451.00 438.00,1457.00 438.00,1457.00
             438.00,1457.00 459.33,1473.67 459.33,1473.67
             459.33,1473.67 478.00,1487.67 478.00,1487.67
             478.00,1487.67 501.00,1496.67 501.00,1496.67
             501.00,1496.67 525.67,1501.33 525.67,1501.33
             525.67,1501.33 552.00,1496.33 552.00,1496.33
             552.00,1496.33 572.00,1486.33 572.00,1486.33
             572.00,1486.33 584.00,1466.67 584.00,1466.67
             584.00,1466.67 600.67,1444.67 600.67,1444.67
             600.67,1444.67 620.00,1432.67 620.00,1432.67
             620.00,1432.67 634.00,1436.33 634.00,1436.33
             634.00,1436.33 645.67,1447.33 645.67,1448.00
             645.67,1448.67 650.33,1460.67 650.33,1460.67
             650.33,1460.67 648.67,1472.67 648.67,1472.33
             648.67,1472.00 641.33,1473.67 641.33,1473.67
             641.33,1473.67 638.33,1482.67 638.33,1482.67
             638.33,1482.67 644.33,1498.33 644.33,1498.33
             644.33,1498.33 657.67,1518.00 657.67,1518.00
             657.67,1518.00 665.00,1535.00 665.00,1535.00
             665.00,1535.00 665.00,1555.00 665.00,1555.00
             665.00,1555.00 657.67,1564.33 657.67,1564.33
             657.67,1564.33 617.00,1565.67 617.00,1565.67
             617.00,1565.67 615.00,1574.67 615.00,1574.67
             615.00,1574.67 610.33,1577.00 610.33,1577.00
             610.33,1577.00 593.00,1576.33 593.00,1576.33
             593.00,1576.33 582.33,1584.33 582.33,1584.33
             582.33,1584.33 575.00,1595.00 575.00,1595.00
             575.00,1595.00 567.00,1605.67 567.00,1605.67
             567.00,1605.67 556.67,1613.33 556.67,1613.33
             556.67,1613.33 544.33,1617.67 544.33,1617.67
             544.33,1617.67 521.00,1625.33 521.00,1625.33
             521.00,1625.33 529.33,1634.33 529.33,1634.33
             529.33,1634.33 543.67,1642.00 544.00,1642.67
             544.33,1643.33 558.33,1645.00 558.33,1645.00
             558.33,1645.00 574.67,1643.67 574.67,1643.67
             574.67,1643.67 592.67,1637.67 592.67,1637.67
             592.67,1637.67 608.67,1635.00 608.67,1635.00
             608.67,1635.00 633.33,1636.00 633.33,1636.00
             633.33,1636.00 640.67,1636.67 640.67,1636.67
             640.67,1636.67 646.00,1642.00 646.67,1642.00
             647.33,1642.00 650.33,1652.33 650.33,1652.33
             650.33,1652.33 644.67,1658.67 644.67,1658.67
             644.67,1658.67 633.67,1666.67 633.67,1666.33
             633.67,1666.00 630.67,1674.00 630.67,1674.00
             630.67,1674.00 631.00,1681.67 631.00,1681.67
             631.00,1681.67 635.00,1685.67 635.00,1685.67
             635.00,1685.67 648.00,1688.00 648.00,1688.00
             648.00,1688.00 659.33,1696.33 659.33,1696.33
             659.33,1696.33 666.67,1710.33 666.67,1710.33
             666.67,1710.33 681.00,1716.33 681.00,1716.33
             681.00,1716.33 702.67,1718.00 702.67,1718.00
             702.67,1718.00 706.67,1725.00 706.67,1725.00
             706.67,1725.00 715.33,1727.33 715.33,1727.33
             715.33,1727.33 729.33,1718.00 729.33,1718.00
             729.33,1718.00 734.67,1694.67 734.67,1694.67
             734.67,1694.67 737.00,1672.33 737.00,1672.33
             737.00,1672.33 746.00,1650.00 746.00,1650.00
             746.00,1650.00 752.67,1624.67 752.67,1624.67
             752.67,1624.67 756.00,1599.00 756.00,1599.00
             756.00,1599.00 760.00,1572.67 760.00,1572.67
             760.00,1572.67 764.67,1552.00 764.67,1552.00
             764.67,1552.00 772.00,1531.00 772.00,1531.00
             772.00,1531.00 777.67,1511.67 777.67,1511.67
             777.67,1511.67 779.67,1489.67 779.67,1489.67
             779.67,1489.67 783.67,1452.33 783.67,1452.33
             783.67,1452.33 791.33,1424.33 791.33,1424.33
             791.33,1424.33 798.00,1396.33 798.00,1396.33
             798.00,1396.33 803.00,1367.00 803.00,1367.00
             803.00,1367.00 802.33,1358.33 802.33,1358.33
             802.33,1358.33 804.33,1346.33 804.33,1346.33
             804.33,1346.33 814.00,1328.33 814.00,1328.33
             814.00,1328.33 816.33,1309.33 816.33,1309.33
             816.33,1309.33 818.67,1295.67 818.67,1295.67
             818.67,1295.67 823.00,1287.67 823.33,1287.00
             823.67,1286.33 840.33,1264.00 840.33,1264.00
             840.33,1264.00 841.67,1245.33 841.67,1245.33
             841.67,1245.33 839.33,1229.67 839.33,1229.67
             839.33,1229.67 835.00,1204.00 835.00,1204.00
             835.00,1204.00 836.67,1185.33 836.67,1185.33
             836.67,1185.33 843.67,1159.33 843.67,1159.00
             843.67,1158.67 843.00,1118.00 843.00,1118.00
             843.00,1118.00 855.67,1095.00 855.67,1095.00
             855.67,1095.00 855.67,1077.00 855.67,1077.00
             855.67,1077.00 848.00,1073.00 848.00,1073.00
             848.00,1073.00 846.33,1064.00 846.33,1064.00
             846.33,1064.00 850.00,1055.00 850.00,1055.00
             850.00,1055.00 867.33,1035.00 867.33,1035.00
             867.33,1035.00 871.33,1027.33 871.33,1027.33
             871.33,1027.33 872.00,989.67 872.00,989.67
             872.00,989.67 879.00,974.33 879.00,974.33
             879.00,974.33 891.00,968.33 891.00,968.33
             891.00,968.33 899.67,952.67 899.67,952.67
             899.67,952.67 904.00,933.33 904.00,933.33
             904.00,933.33 906.00,906.33 906.00,906.33
             906.00,906.33 906.00,882.67 906.00,882.67
             906.00,882.67 899.67,854.67 899.67,854.33
             899.67,854.00 895.33,838.33 895.33,838.33
             895.33,838.33 890.00,827.67 890.00,827.67
             890.00,827.67 884.67,803.67 884.67,803.67
             884.67,803.67 882.00,774.33 882.00,774.33
             882.00,774.33 871.33,752.67 871.33,752.33
             871.33,752.00 875.33,740.33 875.33,739.67
             875.33,739.00 889.33,737.00 889.33,737.00
             889.33,737.00 885.67,726.67 885.33,726.67
             885.00,726.67 875.33,708.33 875.33,708.00
             875.33,707.67 865.67,689.67 865.67,689.33
             865.67,689.00 853.00,685.33 853.00,685.33
             853.00,685.33 843.00,683.67 843.00,683.33
             843.00,683.00 844.33,670.33 844.33,670.33
             844.33,670.33 852.00,659.00 852.00,658.67
             852.00,658.33 858.33,645.00 858.33,645.00
             858.33,645.00 861.33,633.67 861.33,633.67
             861.33,633.67 859.67,625.00 859.67,625.00
             859.67,625.00 853.33,615.67 853.33,615.67
             853.33,615.67 848.67,606.00 848.67,606.00
             848.67,606.00 849.00,596.33 849.00,596.00
             849.00,595.67 866.67,594.33 866.67,594.33
             866.67,594.33 880.33,592.33 880.33,592.33
             880.33,592.33 885.00,589.33 885.00,589.33
             885.00,589.33 884.67,577.00 884.67,577.00
             884.67,577.00 884.00,560.67 883.33,560.67
             882.67,560.67 875.33,556.33 875.33,556.33
             875.33,556.33 860.33,548.67 860.33,548.67
             860.33,548.67 855.67,540.67 855.67,540.33
             855.67,540.00 855.00,520.33 855.00,520.33
             855.00,520.33 860.00,504.00 860.00,504.00
             860.00,504.00 865.33,488.00 865.33,488.00
             865.33,488.00 871.00,467.33 871.00,467.33
             871.00,467.33 878.67,447.67 878.67,447.67
             878.67,447.67 884.67,417.67 884.67,417.67
             884.67,417.67 885.33,410.00 885.33,410.00
             885.33,410.00 888.67,396.67 888.67,396.33
             888.67,396.00 893.00,381.00 893.00,381.00
             893.00,381.00 892.33,362.67 892.33,362.67
             892.33,362.67 891.67,337.67 891.67,337.67
             891.67,337.67 888.67,328.00 888.67,328.00
             888.67,328.00 885.00,313.67 885.00,313.67
             885.00,313.67 876.00,305.00 876.00,304.67
             876.00,304.33 868.33,296.00 868.33,295.67
             868.33,295.33 863.67,282.33 863.67,282.33
             863.67,282.33 859.67,271.00 859.67,271.00
             859.67,271.00 853.00,254.33 853.00,254.33
             853.00,254.33 843.00,237.67 843.00,237.33
             843.00,237.00 825.33,216.33 825.33,216.33
             825.33,216.33 812.67,205.67 812.67,205.67
             812.67,205.67 797.67,198.67 797.67,198.67
             797.67,198.67 782.33,191.33 782.33,191.00
             782.33,190.67 775.33,189.33 775.33,189.33
             775.33,189.33 777.00,204.00 777.00,204.00
             777.00,204.00 759.00,226.00 759.00,226.00
             759.00,226.00 741.33,231.67 741.33,231.67
             741.33,231.67 718.00,211.33 718.00,211.33
             718.00,211.33 699.00,189.33 699.00,189.33
             699.00,189.33 688.00,169.33 688.00,169.33
             688.00,169.33 681.33,153.00 681.33,153.00
             681.33,153.00 680.67,124.00 680.67,123.67
             680.67,123.33 676.00,112.33 676.00,112.33
             676.00,112.33 666.33,108.67 666.33,108.67
             666.33,108.67 658.67,109.33 656.33,110.00
             654.00,110.67 636.67,115.67 636.33,115.67
             636.00,115.67 618.00,116.33 618.00,116.33
             618.00,116.33 608.00,109.33 608.00,109.00
             608.00,108.67 602.00,98.33 602.00,98.33
             602.00,98.33 603.00,86.33 603.00,86.33
             603.00,86.33 612.00,69.67 612.00,69.33
             612.00,69.00 617.67,54.00 617.67,54.00
             617.67,54.00 612.33,40.33 612.33,40.33
             612.33,40.33 601.67,35.00 601.67,35.00
             601.67,35.00 590.33,32.67 590.00,32.33
             589.67,32.00 577.33,29.33 577.33,29.33
             577.33,29.33 553.64,27.64 553.64,27.64" />
</svg>
